{
  "title": "The Jungle Book 2016 HD-TC x264-UNiQUE",
  "uid": 14437924,
  "size": 1543570817,
  "categoryP": "video",
  "categoryS": "movies",
  "magnet": "?xt=urn:btih:586b851f6e4219160111bd21aca9c2cd4fa789c0&amp;dn=The+Jungle+Book+2016+HD-TC+x264-UNiQUE&amp;tr=udp%3A%2F%2Ftracker.leechers-paradise.org%3A6969&amp;tr=udp%3A%2F%2Fzer0day.ch%3A1337&amp;tr=udp%3A%2F%2Fopen.demonii.com%3A1337&amp;tr=udp%3A%2F%2Ftracker.coppersurfer.tk%3A6969&amp;tr=udp%3A%2F%2Fexodus.desync.com%3A6969",
  "seeders": 76,
  "leechers": 24,
  "uploader": "xxxlavalxxx",
  "files": 3,
  "time": 1461648582,
  "description": "http://extraimago.com/image/aypf\r\n \nhttp://www.imdb.com/title/tt3040964/\r\n\r\n\r\nAn orphan boy is raised in the jungle with the help of a pack of wolves, a bear, and a black panther.\r\n\r\nDirector: Jon Favreau\r\nWriters: Justin Marks (screenplay), Rudyard Kipling (book)\r\nStars: Neel Sethi, Bill Murray, Ben Kingsley \r\nGenres: Adventure | Drama | Family | Fantasy\r\nCountry: USA\r\nLanguage: English\r\n\r\n\r\nFormat                      : Matroska\r\nFile size                   : 1.42 GiB\r\nDuration                    : 1h 45mn\r\nOverall bit rate            : 1 927 Kbps\r\n\r\nVideo\r\nID                          : 1\r\nFormat                      : AVC\r\nFormat/Info                 : Advanced Video Codec\r\nFormat profile              :   \r\nFormat settings, CABAC      : Yes\r\nFormat settings, ReFrames   : 4 frames\r\nCodec ID                    : V_MPEG4/ISO/AVC\r\nDuration                    : 1h 45mn\r\nBit rate                    : 1 800 Kbps\r\nWidth                       : 720 pixels\r\nHeight                      : 384 pixels\r\nDisplay aspect ratio        : 1.85:1\r\nFrame rate mode             : Constant\r\nFrame rate                  : 23.976 (24000/1001) fps\r\nColor space                 : YUV\r\nChroma subsampling          : 4:2:0\r\nBit depth                   : 8 bits\r\nScan type                   : Progressive\r\nBits/(Pixel*Frame)          : 0.272\r\nStream size                 : 1.33 GiB (93%)\r\n\r\n\r\nAudio\r\nID                          : 2\r\nFormat                      : MPEG Audio\r\nFormat version              : Version 1\r\nFormat profile              : Layer 3\r\nCodec ID                    : A_MPEG/L3\r\nCodec ID/Hint               : MP3\r\nDuration                    : 1h 45mn\r\nBit rate mode               : Constant\r\nBit rate                    : 128 Kbps\r\nChannel(s)                  : 2 channels\r\nSampling rate               : 44.1 KHz\r\nFrame rate                  : 38.281 fps (1152 spf)\r\nCompression mode            : Lossy\r\nDelay relative to video     : 1s 600ms\r\nStream size                 : 96.7 MiB (7%)\r\nDefault                     : Yes\r\nForced                      : No\r\n\r\n\r\nSource\r\nVideo:720pTCmp4ba\r\nAudio: CPG\r\n\r\n \nhttp://extraimago.com/image/amSa \nhttp://extraimago.com/image/amSw \nhttp://extraimago.com/image/amS2 \nhttp://extraimago.com/image/amSN \nhttp://extraimago.com/image/amST \nhttp://extraimago.com/image/amSj \nhttp://extraimago.com/image/amSn",
  "parsed": {
    "xt": "urn:btih:586b851f6e4219160111bd21aca9c2cd4fa789c0",
    "dn": "The Jungle Book 2016 HD-TC x264-UNiQUE",
    "tr": [
      "udp://exodus.desync.com:6969",
      "udp://open.demonii.com:1337",
      "udp://tracker.coppersurfer.tk:6969",
      "udp://tracker.leechers-paradise.org:6969",
      "udp://zer0day.ch:1337"
    ],
    "infoHash": "586b851f6e4219160111bd21aca9c2cd4fa789c0",
    "infoHashBuffer": {
      "type": "Buffer",
      "data": [
        88,
        107,
        133,
        31,
        110,
        66,
        25,
        22,
        1,
        17,
        189,
        33,
        172,
        169,
        194,
        205,
        79,
        167,
        137,
        192
      ]
    },
    "name": "The Jungle Book 2016 HD-TC x264-UNiQUE",
    "announce": [
      "udp://exodus.desync.com:6969",
      "udp://open.demonii.com:1337",
      "udp://tracker.coppersurfer.tk:6969",
      "udp://tracker.leechers-paradise.org:6969",
      "udp://zer0day.ch:1337"
    ],
    "urlList": []
  },
  "previous": 100,
  "peers": 97,
  "last_updated": "2016-12-25T01:46:04.820Z"
}